# xmcd
#
# Track frame offsets:
#	150
#	10506
#	24413
#	44439
#	63704
#	77675
#	92859
#	107511
#	119592
#	135192
#	149126
#	162779
#	176127
#	188405
#
# Disc length: 2697 seconds
#
# Revision: 0
# Processed by: cddbd v1.5.2PL0 Copyright (c) Steve Scherf et al.
# Submitted via: EasyCDDAExtractor 16.0.6.1
#
DISCID=b50a870e
DTITLE=Νταλάρας Γιώργος - Θέλω να τα πω-14, Άκη Πάνου
DYEAR=1982
DGENRE=Λαϊκή
TTITLE0=Νταλάρας Γιώργος - Θέλω να τα πώ
TTITLE1=Νταλάρας Γιώργος - Τούτος ο τάφος
TTITLE2=Νταλάρας Γιώργος - Άνοιξε, Πέτρο
TTITLE3=Νταλάρας Γιώργος - Φέρε
TTITLE4=Νταλάρας Γιώργος - Ο εαυτός μου
TTITLE5=Νταλάρας Γιώργος - Προσευχή του καλού ραγιά
TTITLE6=Νταλάρας Γιώργος - Χαροκόπου 1942-1953 (Στις παράγκες)
TTITLE7=Νταλάρας Γιώργος - Δεν είν' ο κόσμος φίλος μου
TTITLE8=Νταλάρας Γιώργος - Ο δρόμος είναι δρόμος
TTITLE9=Νταλάρας Γιώργος-χορωδία - Όμορφο χαβά
TTITLE10=Νταλάρας Γιώργος - Για έλα κάθησε με μάς
TTITLE11=Νταλάρας Γιώργος - Έζησε με το τίποτα
TTITLE12=Νταλάρας Γιώργος - Αδιόρθω- αναρχί-
TTITLE13=Νταλάρας Γιώργος - Ζήτω!
EXTD=
EXTT0=
EXTT1=
EXTT2=
EXTT3=
EXTT4=
EXTT5=
EXTT6=
EXTT7=
EXTT8=
EXTT9=
EXTT10=
EXTT11=
EXTT12=
EXTT13=
PLAYORDER=
